<svg width="40" height="38" xmlns="http://www.w3.org/2000/svg"><g fill="none" fill-rule="evenodd"><rect fill="#0085FF" transform="rotate(180 20 19)" width="40" height="38" rx="3"/><path stroke="#FFF" stroke-width="2" stroke-linecap="round" stroke-linejoin="round" d="M7.722 15.339l4.929-4.727 7.08 7.421 9.92-9.919"/><path d="M32.5 10.793V5h-5.793a.5.5 0 00-.353.854l5.292 5.292a.5.5 0 00.854-.353z" fill="#FFF"/><path d="M8 20h4a1 1 0 011 1v12H7V21a1 1 0 011-1zm10 4h4a1 1 0 011 1v8h-6v-8a1 1 0 011-1zm10-5h4a1 1 0 011 1v13h-6V20a1 1 0 011-1z" fill="#88D6FD"/></g></svg>