<svg width="40" height="38" xmlns="http://www.w3.org/2000/svg" xmlns:xlink="http://www.w3.org/1999/xlink"><defs><path id="a" d="M0 0h17v16H0z"/><path id="c" d="M-6 6h17v17H-6z"/></defs><g fill="none" fill-rule="evenodd"><circle stroke="#FFF" stroke-width="3" cx="26" cy="19" r="9"/><circle stroke="#A5D3F5" stroke-width="3" cx="15" cy="19" r="9"/><rect fill="#0085FF" width="40" height="38" rx="3"/><g transform="translate(14 8)"><mask id="b" fill="#fff"><use xlink:href="#a"/></mask><path d="M5.942 13.518c-.11.186-1.958 2.011-2.51 2.482-.458-.23-.899-.483-1.295-.815a9.009 9.009 0 01-.539-.48c-.296-.29-.517-.636-.737-.981A5.47 5.47 0 01.31 12.52c-.038-.11-.077-.222-.104-.335-.028-.116-.012-.251-.068-.35-.116-.21-.02-.438-.098-.658-.07-.2-.03-.442-.012-.664.027-.334.077-.666.116-.999.118-.16.103-.364.18-.538.08-.18.116-.377.216-.552.095-.164.162-.344.264-.503.155-.241.309-.482.496-.703.543-.642 1.185-1.188 1.777-1.782.576-.576 1.187-1.12 1.745-1.713a46.975 46.975 0 011.995-1.98c.402-.379.834-.73 1.338-.988.481-.247.788-.383 1.332-.52.063-.12.203-.012.29-.097.063-.061.175-.011.269-.068.079-.047.22.016.32-.014.329-.098.662-.037.992-.051a.805.805 0 01.367.047c.101.043.259-.031.349.019.113.063.258-.005.345.106.545.062 1.023.306 1.5.541.258.127.494.297.73.466.335.24.619.533.896.83.208.221.389.47.551.732.14.225.263.458.38.692.147.3.247.618.333.941a4.8 4.8 0 01.171.976c.018.338.037.682-.007 1.016-.032.249-.006.52-.16.747.01.254-.123.473-.187.709-.007.026-.012.053-.024.077-.09.187-.18.374-.275.559-.09.177-.2.347-.306.514a3.825 3.825 0 01-.54.654c-1.254 1.232-2.517 2.456-3.78 3.686-.113-.149.077-.277.028-.42.084-.074.05-.174.062-.265.01-.08.046-.158.056-.239.025-.194.05-.39.06-.586a5.91 5.91 0 00-.002-.61c-.006-.13.042-.264-.037-.392-.07-.112.014-.251-.07-.38-.06-.09.035-.244-.069-.348.03-.268-.164-.484-.18-.742-.133-.119-.035-.197.05-.28.494-.48.993-.954 1.476-1.442.325-.327.519-.725.63-1.17.092-.37.048-.741.047-1.11 0-.166-.071-.337-.137-.495-.168-.405-.391-.784-.739-1.066-.33-.267-.69-.487-1.127-.579-.262-.055-.517-.132-.788-.108-.488.045-.962.142-1.37.427-.179.124-.357.25-.519.392-.12.107-.207.249-.32.362-.335.333-.677.658-1.012.989C6.48 6.5 5.215 7.743 3.964 8.996a2.422 2.422 0 00-.591 1.01 2.576 2.576 0 00-.117 1.084c.03.24.104.48.196.704.093.224.204.452.359.638.36.432.81.758 1.363.928.124.038.257.05.385.077l.383.08" fill="#99D4F9" mask="url(#b)"/><mask id="d" fill="#fff"><use xlink:href="#c"/></mask><path d="M-.685 9.604c.004.068.014.115.006.159-.007.033-.05.06-.055.093-.025.137-.035.277-.064.413-.038.18-.038.366-.103.541-.019.052-.014.113-.014.17-.001.32-.02.643.006.962.018.208.025.423.104.627.04.101-.024.228.069.322-.005.284.138.526.229.783.012.035.009.075.014.121-.518.506-1.043 1.01-1.558 1.524-.245.244-.449.52-.542.86-.021.076-.109.142-.111.215-.007.208-.095.405-.07.618.018.144.008.291.003.437-.01.274.073.529.183.773.152.339.334.661.622.916a3.11 3.11 0 001.132.645c.355.113.727.17 1.086.106.522-.094 1.023-.253 1.441-.623.255-.225.505-.455.748-.691 1.477-1.435 2.947-2.875 4.422-4.31.246-.24.475-.5.622-.8.127-.256.247-.526.279-.823.015-.137.058-.272.054-.414a2.81 2.81 0 00-.557-1.64 2.37 2.37 0 00-.782-.676 3.296 3.296 0 00-.96-.353 2.633 2.633 0 00-.45-.05L7.639 7c.433.203.855.45 1.243.763.205.165.389.348.582.524.138.126.671.826.733 1.015.05.15.218.241.198.417.222.332.287.721.411 1.089a.78.78 0 01.056.267c-.003.1.065.178.062.267-.01.364.121.722.06 1.084-.071.418-.1.838-.216 1.253-.124.44-.292.856-.502 1.258-.15.286-.337.55-.547.8-.56.668-1.226 1.236-1.842 1.852-.612.613-1.241 1.209-1.857 1.819-.31.307-.604.632-.912.943-.305.307-.61.615-.931.907-.364.332-.738.666-1.174.899a8.101 8.101 0 01-1.103.499c-.335.119-.688.153-1.017.278a.06.06 0 01-.03 0c-.236-.037-.458.071-.693.06-.229-.01-.462.024-.686-.008-.253-.037-.51-.049-.759-.112a15.58 15.58 0 01-.696-.192 5.5 5.5 0 01-1.006-.446 6.784 6.784 0 01-.682-.438c-.307-.215-.562-.483-.816-.749a5.633 5.633 0 01-.675-.892c-.092-.146-.157-.307-.243-.456-.241-.424-.356-.889-.48-1.353-.154-.572-.108-1.153-.117-1.733.1-.249.025-.536.18-.773.15-.644.272-.963.598-1.538.123-.217.27-.419.416-.62.176-.245.4-.447.614-.657l3.507-3.423" fill="#FFF" mask="url(#d)"/></g></g></svg>